<svg id="Layer_1" data-name="Layer 1" xmlns="http://www.w3.org/2000/svg" viewBox="0 0 115 115">
  <title>Blockchain_icon</title>
  <rect width="115" height="115" fill="#0072c6"/>
  <g>
    <circle cx="56.167" cy="53.5" r="6.667" fill="#fff"/>
    <path d="M75.1,47.1a19.977,19.977,0,0,0-38.66,3.229A15.988,15.988,0,1,0,54.833,74.262V62.686a9.309,9.309,0,0,1-5.619-3.014l-1.2,1.2a8.04,8.04,0,1,1-1.885-1.885L47.713,57.4a9.324,9.324,0,1,1,17.011-.19l2.938,2.1a6.7,6.7,0,0,1,.777-.672,6.623,6.623,0,0,1,2.384-1,6.755,6.755,0,0,1,1.344-.135A6.667,6.667,0,1,1,65.5,64.167a6.559,6.559,0,0,1,.612-2.687L63.29,59.464A9.3,9.3,0,0,1,57.5,62.68V73.367c.013.021.021.044.035.064A17.323,17.323,0,1,0,75.1,47.1Z" fill="#fff"/>
    <circle cx="41.5" cy="65.5" r="5.333" fill="#fff"/>
  </g>
</svg>
