<svg id="Layer_1" data-name="Layer 1" xmlns="http://www.w3.org/2000/svg" viewBox="0 0 32 32"><defs><style>.cls-1{fill:#e0b479;}.cls-2{fill:#cda469;}.cls-3{fill:#fad59e;}</style></defs><title>Box_3</title><polygon class="cls-1" points="27.54 12.63 17.31 17.68 7.08 12.63 17.31 8.38 27.54 12.63"/><polygon class="cls-2" points="17.31 28.46 27.6 23.39 27.6 12.59 17.31 17.66 17.31 28.46"/><polygon class="cls-3" points="27.6 23.33 27.6 23.39 27.54 23.36 27.6 23.33"/><polygon class="cls-3" points="17.31 28.46 7.08 23.45 7.08 12.65 17.31 17.66 17.31 28.46"/><polygon class="cls-1" points="26.82 19.8 24.12 21.12 24.12 23.97 26.82 22.65 26.82 19.8"/><polygon class="cls-2" points="27.6 12.53 27.6 12.59 27.54 12.56 27.6 12.53"/><path class="cls-2" d="M22.19,15.26c-3.89-1.79-9.72-4.57-10.13-4.7L13.32,10c.44.13,8.38,3.88,10,4.65Z"/></svg>