<svg id="Layer_1" data-name="Layer 1" xmlns="http://www.w3.org/2000/svg" viewBox="0 0 32 32"><defs><style>.cls-1{fill:#563014;}.cls-2{fill:#663b1e;}.cls-3{fill:#42210b;}.cls-4{fill:#a3734b;}.cls-5{fill:#4c2a12;}</style></defs><title>Coffee_2</title><ellipse class="cls-1" cx="15.45" cy="17.34" rx="6.26" ry="8.98" transform="translate(-6.55 24.8) rotate(-67.03)"/><path class="cls-2" d="M23.48,19.6a6,6,0,0,1-2.23,1.29c-1.41.37-4.49.46-6.25-1.18-3.14-2.92-3.74-3.67-4.08-3.85s-1-1.71-2.22-1.78a23.29,23.29,0,0,1,4.06.53c.8.35,3.61,3.68,3.89,3.85S20.28,20.11,21.2,20C22.37,19.83,23.48,19.6,23.48,19.6Z"/><path class="cls-3" d="M18.39,19.66l.07,0c3,.86,5.17-.05,5.36-.28a4,4,0,0,1-1.74.31,9.87,9.87,0,0,1-6.75-3.61,6.62,6.62,0,0,0-2.92-2l-.07,0c-3-.8-5.16.05-5.36.28a4.55,4.55,0,0,1,1.74-.3c.86,0,3.82-.16,6.76,3.6l.09.12,0,0A6.82,6.82,0,0,0,18.39,19.66Z"/><path class="cls-4" d="M8.34,14.11h.33c.85,0,3.82-.16,6.75,3.6a1.27,1.27,0,0,1,.1.12s0,0,0,0a6.63,6.63,0,0,0,2.78,1.82l.06,0a8.63,8.63,0,0,0,3.9.25,3.8,3.8,0,0,1-.91.06,9.89,9.89,0,0,1-6.76-3.6,6.56,6.56,0,0,0-2.91-2l-.07,0A9.37,9.37,0,0,0,8.34,14.11Z"/><path class="cls-2" d="M22,22.1a1.62,1.62,0,0,0-1.64-1.22l2.86-1.16.56-.32s.05,1.56-.72,2S22,22.1,22,22.1Z"/><path class="cls-2" d="M8.84,13.85s-1.33-.36-.5-1.62a4.91,4.91,0,0,0-1.28,2.11Z"/><path class="cls-5" d="M23.49,21.34s-7.47,3.1-11.67.06a11.65,11.65,0,0,1-4.8-7s-.79,1.87,1,4.4c1.39,1.95,4.57,5.09,8.51,5.29s5.29-1,5.58-1.23A14.39,14.39,0,0,0,23.49,21.34Z"/><path class="cls-3" d="M13,23.14c4.53,1.92,9.28.89,10.63-2.29A4.48,4.48,0,0,0,24,18.77a4.46,4.46,0,0,1-.34,1.42c-1.35,3.19-6.09,4.19-10.63,2.29C9.46,21,8.2,19.07,6.83,15.33,6.6,18.23,9.13,21.5,13,23.14Z"/><path class="cls-2" d="M23.48,19.4s-3.26-4.13-6-5.61c-2.27-1.22-4-2.19-6.23-1.76-1.83.35-2.47.48-2.71.85a.64.64,0,0,0,.27,1c.23.05-.9.11-1-.25s.55-1.27,1-1.59a8.72,8.72,0,0,1,7-1,13.44,13.44,0,0,1,6.64,4c1.48,1.76,1.8,3.6,1.47,4.14S23.48,19.4,23.48,19.4Z"/><path class="cls-2" d="M22.38,17.36s1,2-.08,2.35a3.17,3.17,0,0,0,1.52-.31s.16-.44,0-.59S22.38,17.36,22.38,17.36Z"/><path class="cls-4" d="M7.36,13.45C9,10.67,13.52,9.91,17.78,11.73c4.53,2,7.12,6.15,5.78,9.36a2.26,2.26,0,0,1-.17.35,4.65,4.65,0,0,0,.32-.63c1.35-3.21-1.24-7.41-5.78-9.35S8.82,10.45,7.36,13.45Z"/><path class="cls-5" d="M7.76,16.58a2,2,0,0,1-.13-.74A1.59,1.59,0,0,1,9,14.15a2,2,0,0,0-.72,0A6.49,6.49,0,0,0,7,14.36a5.27,5.27,0,0,0,.1,1.56C7.23,16,7.76,16.58,7.76,16.58Z"/><ellipse class="cls-1" cx="19.91" cy="13.64" rx="6.26" ry="8.98" transform="translate(-4.2 12.43) rotate(-31.55)"/><path class="cls-2" d="M25.14,20.14a6.15,6.15,0,0,1-2.57-.24c-1.36-.52-3.92-2.23-4.4-4.59-.86-4.2-.91-5.16-1.09-5.5s.2-2-.77-2.74a23.26,23.26,0,0,1,3,2.79c.45.74.81,5.09.93,5.39s2,3.45,2.82,3.89C24.1,19.69,25.14,20.14,25.14,20.14Z"/><path class="cls-3" d="M21,17.23l.05.07c1.95,2.45,4.23,2.95,4.52,2.88a4,4,0,0,1-1.59-.76,9.86,9.86,0,0,1-3.41-6.85,6.66,6.66,0,0,0-1.24-3.29l0-.06c-2-2.39-4.24-3-4.53-2.89a4.64,4.64,0,0,1,1.59.77c.7.49,3.21,2.08,3.41,6.85a.66.66,0,0,1,0,.15s0,0,0,.05A6.8,6.8,0,0,0,21,17.23Z"/><path class="cls-4" d="M16,6.89a2.2,2.2,0,0,1,.28.18c.69.49,3.2,2.08,3.41,6.85,0,.05,0,.1,0,.15s0,0,0,0a6.77,6.77,0,0,0,1.2,3.09l.05.05a8.73,8.73,0,0,0,3,2.47,4.11,4.11,0,0,1-.78-.48,9.86,9.86,0,0,1-3.41-6.86,6.56,6.56,0,0,0-1.24-3.28l0-.06A9,9,0,0,0,16,6.89Z"/><path class="cls-2" d="M22.52,21.34a1.63,1.63,0,0,0-.63-1.94l3,.71.64.07s-.86,1.29-1.77,1.24Z"/><path class="cls-2" d="M16.56,7s-.88-1.06.53-1.61a4.89,4.89,0,0,0-2.27,1Z"/><path class="cls-5" d="M24.14,21.57s-7.88-1.81-9.54-6.73a11.73,11.73,0,0,1,.16-8.5S13,7.41,13,10.52c0,2.39.78,6.8,3.87,9.25S21.79,22,22.15,22A13.75,13.75,0,0,0,24.14,21.57Z"/><path class="cls-3" d="M14.55,16.94c2.57,4.19,7,6.11,10,4.3A4.42,4.42,0,0,0,26,19.75a4.63,4.63,0,0,1-1.1,1c-3,1.81-7.39-.13-10-4.31-2-3.25-1.93-5.55-.87-9.4C12.19,9.23,12.35,13.36,14.55,16.94Z"/><path class="cls-2" d="M25.25,20S25,14.72,23.6,11.91c-1.14-2.31-2-4.12-4-5-1.71-.77-2.3-1-2.71-.88a.64.64,0,0,0-.34.94c.16.17-.79-.43-.71-.82s1.19-.71,1.73-.71a8.73,8.73,0,0,1,6.28,3.19,13.52,13.52,0,0,1,3.11,7.1c.18,2.29-.63,4-1.21,4.22S25.25,20,25.25,20Z"/><path class="cls-2" d="M25.55,17.69s-.32,2.21-1.43,1.86c0,0,.91.67,1.41.63,0,0,.39-.27.32-.5S25.55,17.69,25.55,17.69Z"/><path class="cls-4" d="M15.58,5.78c3-1.31,7.08.69,9.49,4.65,2.55,4.22,2.23,9.13-.73,11a1.66,1.66,0,0,1-.35.19,4.83,4.83,0,0,0,.64-.33c3-1.83,3.28-6.75.72-11S18.51,4.18,15.58,5.78Z"/><path class="cls-5" d="M14.09,8.56a2.14,2.14,0,0,1,.33-.68,1.57,1.57,0,0,1,2.11-.56A1.89,1.89,0,0,0,16,6.87a5.83,5.83,0,0,0-1.18-.54A5.11,5.11,0,0,0,14,7.66C14,7.81,14.09,8.56,14.09,8.56Z"/></svg>