<svg id="Layer_1" data-name="Layer 1" xmlns="http://www.w3.org/2000/svg" viewBox="0 0 32 32"><defs><style>.cls-1{fill:#666;}.cls-2{fill:#eebe90;}.cls-3{fill:#d5dee2;}.cls-4{fill:#ccd6da;}.cls-5{fill:#333;}.cls-6{fill:#4d4d4d;}.cls-7{fill:#1a1a1a;}</style></defs><title>Cow_1</title><path class="cls-1" d="M8.68,26s-.6-.7-.6-1S8,23.71,8,23.51c.27-1.54,0-2.13-.21-2.14s-.65-1.85-.65-1.85A1.68,1.68,0,0,1,8,19.15a21.34,21.34,0,0,1,2.56.45c.16.09.29.38.1.48s-.74.78-.7,1.05A2,2,0,0,1,10,22a1.68,1.68,0,0,0-.32.58,2.86,2.86,0,0,0-.11.95,3.22,3.22,0,0,1,.12.53c0,.13,0,.47,0,.68a1.21,1.21,0,0,0,.26.63c.09.1.33.48.33.48s.2.25-.2.27A11.87,11.87,0,0,1,8.68,26Z"/><path class="cls-2" d="M12.06,18.51a2.67,2.67,0,0,1-.12.8,1.49,1.49,0,0,1-.9.9,2.75,2.75,0,0,1-2.54-.14,6.93,6.93,0,0,1-.83-1.46l1.56-1Z"/><path class="cls-1" d="M23.23,19.08c0,.08-.21.94-.3,1.36A8.64,8.64,0,0,1,22.12,23c-.43.54,0,1.63,0,1.75a2,2,0,0,0,.45.91c.18.09.21.45-.09.45S21.06,26,21.06,26a.47.47,0,0,0-.12-.55c-.27-.27-.27-.32-.27-1s.22-.64.12-1.31a6.66,6.66,0,0,1,0-1.36c0-.15-.6-1.43-.42-2s.29-2,.77-1.94a10,10,0,0,1,2.11.58C23.45,18.57,23.32,18.93,23.23,19.08Z"/><path class="cls-3" d="M6.72,26.05H5a1.49,1.49,0,0,1-.28-1.25c.12-.85,0-1.25.12-1.77a7.42,7.42,0,0,0-.45-2c0-.2.25-2.24.29-2.69s-.93-6-.93-6.34.16-4,1-4.35a9.09,9.09,0,0,1,3-.43c.29,0,1.35.23,2.45.28,1.62.08,3.45.15,3.78.15a22.4,22.4,0,0,0,3.93,0A23.56,23.56,0,0,1,21.76,7c.4,0,1.93.21,2.21.21s1.27-1.56,1.64-1.58,1.48,0,1.87,0,.63.35,1.08.9c0,0,.31.63.47.63s1.41-.72,2.26,0c0,0,0,1.13-.61,1.37a2.54,2.54,0,0,1-1.53-.16A22,22,0,0,1,29,11a6.17,6.17,0,0,0,.3,2c.12.48.43,1.43-.08,1.59-.74.24-2.71,0-2.72-.26,0-.91-1.49-3.12-1.61-3.81s-.08.21-.08.21a14.69,14.69,0,0,1,.57,3.22c-.08.88,0,4.83-1,4.95a8.15,8.15,0,0,1-2.26.28c-.32-.16-.64-.52-1-.32a2.14,2.14,0,0,0-.76,1c0,.24.15,1.79.07,2.11s-.64.73-.68,1a2.45,2.45,0,0,0,0,1.33c.2.52.24,1.33.52,1.49a.26.26,0,0,1,.09.44l-1.66-.16a5.67,5.67,0,0,1-.24-1.3c0-.52.43-2.13.15-2.73a4,4,0,0,1-.21-1.79c0-.54.09-1.87-.33-2A7.63,7.63,0,0,1,10,17.87s-.6.2-.72.45-.59.28-.87.44a8.79,8.79,0,0,0-1.08,1.66,5.43,5.43,0,0,1-.83,1.46c-.4.36-.38,2-.3,2.56a5.27,5.27,0,0,0,.28.94C6.58,25.74,6.72,26.05,6.72,26.05Z"/><path class="cls-4" d="M6.58,26a1.07,1.07,0,0,0,.18,0,.14.14,0,0,0,0-.19l-.28-.37a1.93,1.93,0,0,1-.19-.34"/><path class="cls-5" d="M13.35,13.41c.4.07-.3.51-.33.85a2,2,0,0,0,1.27,1.36c.57.09,2.35.3,3-.73s.81-1.3.57-2.14-.57-1.21-.18-1.85.81-1,.84-1.32-.45-.91-.39-1.27.09-.64-.42-.55a19.83,19.83,0,0,1-2.76,0c-.67,0-1.66-.15-2.08-.15a3.83,3.83,0,0,0-1.33.09c-.33.15-.63.51-.48.72a1.62,1.62,0,0,1,.28.78c0,.3,1.05,1.06,1.45,1.33s1.48.21,1.6.42A1,1,0,0,1,13.77,12c-.51.21-1.06.06-1.12.42s-.3.91-.12,1.18S13.17,13.38,13.35,13.41Z"/><path class="cls-5" d="M8.87,10.94,9,11c.23.31.09.91,0,1.25a2.21,2.21,0,0,1-.74,1.06c-.14.11-.37.25-.37.45s.23.36.36.5a.48.48,0,0,1,.15.37.51.51,0,0,1-.09.18,3,3,0,0,1-1,.9.53.53,0,0,1-.3.07.56.56,0,0,1-.41-.43.64.64,0,0,0-.14-.3c-.21-.19-.63-.07-.87,0a1.35,1.35,0,0,1-.91,0,.79.79,0,0,1-.35-.62A5.39,5.39,0,0,0,4,12.6c-.19-.39-.41-.6-.35-1.07s.11-.85.16-1.28A4.27,4.27,0,0,1,4,9.17c.12-.29.57-.21.62-.52S4.47,8,4.6,7.8s.88-.34,1.18-.43a9,9,0,0,1,1.28-.23,5.47,5.47,0,0,1,1.06.12c.35,0,.7,0,.86.27a1,1,0,0,1-.05,1.23l-.45.68c-.1.15-.31.33-.32.52a.74.74,0,0,0,.2.49c.05.07.27.37.36.37Z"/><path class="cls-5" d="M2.71,10.21A29.37,29.37,0,0,0,1.46,12.9c-.05.12-.34.91-.34.91l.42-.11A27.69,27.69,0,0,1,4,9.57c.77-.76,1.19-1.14,1.25-1.18a2.11,2.11,0,0,0,.11-.87c-.06,0-.57-.06-1.12.66"/><path class="cls-5" d="M1.48,13.93s0,.06,0,.06a4.67,4.67,0,0,0,.07.63,2.32,2.32,0,0,1-.06.74,1.2,1.2,0,0,1-.42.64c-.05,0-.5.2-.5.26,0-.48-.06-1-.11-1.45a1.19,1.19,0,0,1,0-.42,1.45,1.45,0,0,1,.9-.88h.22A2,2,0,0,1,1.48,13.93Z"/><path class="cls-5" d="M21.85,7S21.24,7,21,7a4.18,4.18,0,0,0-1.29.28,1,1,0,0,0-.24.74c0,.24.18,1.65.28,2s.46,1.87.62,2.2a2,2,0,0,1,.26,1.14c-.08.31-.3.89,0,1.19s1.07.24,1.67.26.71,0,1,.39.95.08,1.17.22a.76.76,0,0,1,.34.66c0,.24-.18.57-.06.81s.54-.2.54-.2.13-.93.15-1.39a6.85,6.85,0,0,1,.2-1.31c.08-.3.2-.47.24-.67a14.88,14.88,0,0,0,0-1.89,9.89,9.89,0,0,0-1-2.07c-.16-.12-.18-.81-.91-.9a1.76,1.76,0,0,1-1.1-.57Z"/><path class="cls-2" d="M27.74,12.64s-.58,0-.64.1.1.54-.14.72-.65.47-.53.75c.35.74,1.92.68,2.52.5s.75-.54.56-.72-.4-.45-.4-.59.32-.48,0-.62a3.15,3.15,0,0,0-1.05-.16C27.74,12.6,27.74,12.64,27.74,12.64Z"/><path class="cls-6" d="M29.1,11.9a9.17,9.17,0,0,1-.85-2.44,1.62,1.62,0,0,0-.15-1.05c-.12-.2.1-.44.21-1a9.14,9.14,0,0,1,.23-.93s.25.6.52.56a6.49,6.49,0,0,1,1.16-.39,2.51,2.51,0,0,1,1.19.46c.06.06-.13,1.39-1.13,1.55a2.46,2.46,0,0,1-1-.08c-.08,0-.2.46-.16.6a11.19,11.19,0,0,1,0,1.84A3.78,3.78,0,0,0,29.1,11.9Z"/><path class="cls-7" d="M22.82,8.46s.72.62.83.77A9.05,9.05,0,0,1,24,10.68c.06.2.82,1.7.9,1.92s.55,1.53.61,1.6.18-.52.18-.52l.26-.39-.19-.69c.21-.31-.28-.84-.46-1.09a4.26,4.26,0,0,1-.34-1.12l-.13-.87-.18-.59-.35-.75-.72-.1L23,8.24S22.76,8.39,22.82,8.46Z"/><path class="cls-7" d="M21.84,7s.19.72.49.88.4.41.74.42.41.2.4.25a2.68,2.68,0,0,1-.53.12.86.86,0,0,0-.45-.17,1.2,1.2,0,0,1-.75-.57,1.92,1.92,0,0,1-.21-.44s-.15-.38-.1-.43S21.93,7.06,21.84,7Z"/><path class="cls-7" d="M24.18,8.65a.88.88,0,0,1,.92.06c.47.33.45.62.45.62s-.39.35-.66.21-.62-.31-.67-.51A2.18,2.18,0,0,1,24.18,8.65Z"/><path class="cls-7" d="M24.14,8.5a1.1,1.1,0,0,1,1.25.07,2,2,0,0,1,.51,1.14c0,.09-.45.11-.5.11a1,1,0,0,1-.79-.28A2.4,2.4,0,0,1,24.09,9C24,8.75,24,8.59,24.14,8.5Z"/><path class="cls-5" d="M27,11.94a1.21,1.21,0,0,1-.46,1l-.31.24c-.11.09-.05,0-.14-.18s-1-2.08-1-2.08-.24-1.27-.25-1.35-.61-1.23-.61-1.23a10.73,10.73,0,0,1-1.14-.1c-.15,0-.3-.12-.44-.17a.89.89,0,0,1-.48-.37,2.18,2.18,0,0,1-.29-.66s0,0,0-.05,0,0,0,0l.17-.11s.11-.09.15-.09a1.65,1.65,0,0,1,.61-.18,1.53,1.53,0,0,1,.52.05,1.13,1.13,0,0,1,.46.21l.32.28A1,1,0,0,1,24.3,7l.08-.1c.12-.15.28-.41.28-.41h0a.48.48,0,0,1,.24,0,2.11,2.11,0,0,1,.62.53c.21.2.48.32.69.54a1.56,1.56,0,0,1,.32,1c.05.43.23.84.28,1.27a5.84,5.84,0,0,1,0,.83C26.81,11,27,11.47,27,11.94Z"/><ellipse class="cls-3" cx="24.49" cy="9.08" rx="0.02"/><path class="cls-5" d="M24.52,9.23h0a1.65,1.65,0,0,0,.87.33.55.55,0,0,1-.38.09,1.54,1.54,0,0,1-.49-.28A.22.22,0,0,1,24.52,9.23Z"/><ellipse class="cls-6" cx="28.83" cy="8.84" rx="0.55" ry="0.56" transform="matrix(0.5, -0.87, 0.87, 0.5, 6.76, 29.39)"/><path class="cls-5" d="M24.69,8.3a2.75,2.75,0,0,0,.14.81c.1.11.39-.15.39-.15l0-.48Z"/><path class="cls-6" d="M29.32,9a4.69,4.69,0,0,0-.23.75c-.05.31-.14-.39-.14-.45s.37-.33.37-.33Z"/><path class="cls-6" d="M29.2,9.21l.08.11,0,.14-.15.19-.08.2A1.72,1.72,0,0,1,29,9.59Z"/><path class="cls-5" d="M24.54,9s-.08.13,0,.18.18.1.18.1V9Z"/><ellipse class="cls-5" cx="24.74" cy="8.85" rx="0.41" ry="0.46" transform="translate(-1.17 4.49) rotate(-10.13)"/><ellipse class="cls-2" cx="10.67" cy="20.53" rx="0.24" ry="0.67"/><ellipse class="cls-2" cx="9.42" cy="20.47" rx="0.24" ry="0.67"/></svg>