<svg id="Layer_1" data-name="Layer 1" xmlns="http://www.w3.org/2000/svg" viewBox="0 0 32 32"><defs><style>.cls-1{fill:#184044;}.cls-11,.cls-2,.cls-7{fill:none;}.cls-2{stroke:#4f8484;stroke-width:0.38px;}.cls-11,.cls-2{stroke-miterlimit:10;}.cls-3{fill:#99b7bf;}.cls-4{fill:#fff;}.cls-5{fill:#4f8484;}.cls-6{fill:#165e72;}.cls-8{fill:#d4ddda;}.cls-9{fill:#e8e8e8;}.cls-10{fill:#184538;}.cls-11{stroke:#184044;stroke-width:0.25px;}.cls-12{fill:#d1dbd8;}</style></defs><title>Fish_2</title><path class="cls-1" d="M2.8,16.39s-.33-6.08-.65-7.59C1.92,7.75,2,7.19,2.31,7.15c1.59-.21,4.62.46,4.76.31s-3.84,6.05-3.8,6.61A12.08,12.08,0,0,1,2.8,16.39Z"/><path class="cls-2" d="M6.84,8.52l-.37-.09A35.39,35.39,0,0,0,2,8"/><path class="cls-2" d="M6.84,9.41c-.23-.06-.52-.12-.85-.18a36.81,36.81,0,0,0-3.83-.32"/><path class="cls-2" d="M6.84,10.3a10.5,10.5,0,0,0-1.35-.24c-1.06-.14-2.34-.22-3.21-.26"/><path class="cls-2" d="M6.84,11.19A14.29,14.29,0,0,0,5,10.88c-.9-.09-1.89-.15-2.61-.19"/><path class="cls-2" d="M6.84,12.08a15.9,15.9,0,0,0-2.38-.35c-.71-.08-1.43-.11-2-.14"/><path class="cls-2" d="M6.84,13.05A16,16,0,0,0,4,12.63c-.5,0-1-.06-1.41-.07"/><path class="cls-3" d="M16.53,7.06a.58.58,0,0,1,.14.4.68.68,0,0,1-.67.68.7.7,0,0,1-.25-.05A.67.67,0,0,1,16,6.79.62.62,0,0,1,16.53,7.06Z"/><path class="cls-3" d="M20.34,4.79h0l-.11-.06Z"/><path class="cls-4" d="M16.67,7.46a.68.68,0,0,1-.67.68.7.7,0,0,1-.25-.05,7.74,7.74,0,0,1,.78-1A.58.58,0,0,1,16.67,7.46Z"/><path class="cls-5" d="M25.43,25.33c-.09-.53-.61-.7-.67-.77s-.6-.72-1-.39c-.91.72-2.94.5-3.09.49a5.7,5.7,0,0,1-4.86-3.31s0,0,0,0v0h0a6.64,6.64,0,0,1-.59-2.72,10.38,10.38,0,0,1,1.29-4.72,7.34,7.34,0,0,1,.75-1.2A6.59,6.59,0,0,1,18.3,11.5h0l.25-.22h0s0,0,.07,0a.6.6,0,0,1,.23-.17L19,11a12.68,12.68,0,0,0,2.88-3.61L22.1,7a3.47,3.47,0,0,0-.38-.86c-.58.53-1.55,2-3.07,2.12a26.08,26.08,0,0,1,2-2.9,1.56,1.56,0,0,1,.21-.18,5.42,5.42,0,0,0-.58-.42l-.11-.06a9.06,9.06,0,0,0-6.83-.55l-.07,0A12.95,12.95,0,1,0,24.85,26.14l0,0c.18-.17.35-.35.52-.54a0,0,0,0,0,0,0ZM16,6.79a.62.62,0,0,1,.53.27.58.58,0,0,1,.14.4.68.68,0,0,1-.67.68.7.7,0,0,1-.25-.05A.67.67,0,0,1,16,6.79Z"/><path class="cls-3" d="M16.67,7.46a.68.68,0,0,1-.67.68.7.7,0,0,1-.25-.05A.67.67,0,0,1,16,6.79a.62.62,0,0,1,.53.27A.58.58,0,0,1,16.67,7.46Z"/><circle class="cls-3" cx="19.39" cy="10.8"/><path class="cls-1" d="M31.12,25.81c.07.15,0,.34-.21.29-3.56-1-5.9.11-6.09-.05a.91.91,0,0,0-.2-1.33c-.11-.14-.55-.64-1-.38,1.68-1.83,2.5-7,3.06-8a.19.19,0,0,1,.24-.09c.35.92,1.37,3.72,1.89,4.69,1.37,2.53,1.2,3.76,2.17,4.45Z"/><path class="cls-4" d="M16.67,7.46a.68.68,0,0,1-.67.68.7.7,0,0,1-.25-.05A.67.67,0,0,1,16,6.79a.62.62,0,0,1,.53.27A.58.58,0,0,1,16.67,7.46Z"/><path class="cls-6" d="M11.91,11.22A14.61,14.61,0,0,0,9.26,13.1s-.64.69-.5,1a13.4,13.4,0,0,0,2.35,1.67,10.2,10.2,0,0,0,1.84-4Z"/><path class="cls-1" d="M15.64,21.12a4.5,4.5,0,0,0,1.33.72,10.31,10.31,0,0,0,1.84-.63c.13,0-2.5-2.21-3.76-2.08,0,0-.55.2-.52.34S15.64,21.12,15.64,21.12Z"/><path class="cls-7" d="M25.46,25.25v.23l0,0,0,0a13.43,13.43,0,0,1-5.72,1.24c-6.52,0-11.8-4.4-11.8-9.83,0-3.76,2.55-7,6.29-8.69a5.36,5.36,0,0,0,3.19,4.19l-.09.12a6.72,6.72,0,0,0-.75,1.2,10.42,10.42,0,0,0-1.29,4.73,6.58,6.58,0,0,0,.58,2.71v0h0s0,0,0,0a5.73,5.73,0,0,0,4.87,3.32c.14,0,2.18.21,3.08-.49.42-.34.91.24,1,.38S25.39,24.71,25.46,25.25Z"/><path class="cls-8" d="M24.8,24.48c-.1-.14-.59-.73-1-.39-.9.71-2.94.49-3.08.49a5.72,5.72,0,0,1-4.87-3.31s0,0,0,0v0h0a6.63,6.63,0,0,1-.58-2.72,10.38,10.38,0,0,1,1.29-4.72,6.72,6.72,0,0,1,.75-1.2,6.54,6.54,0,0,1,1.07-1.15h0l.25-.22h0l.06,0a.79.79,0,0,1,.23-.17l.17-.12A11.78,11.78,0,0,0,22.1,7a.84.84,0,0,0-.41-.89,4.82,4.82,0,0,1-3,2.07,25.52,25.52,0,0,1,2.19-3A13.78,13.78,0,0,1,16.7,7.43a.65.65,0,0,1-.66.63A.6.6,0,0,1,15.8,8a.52.52,0,0,1-.32-.24c-4.45,1.39-7.6,5-7.6,9.17,0,5.43,5.28,9.84,11.8,9.84a13.43,13.43,0,0,0,5.72-1.25l0,0a0,0,0,0,0,0,0v-.23C25.39,24.71,24.87,24.55,24.8,24.48Z"/><path class="cls-1" d="M17.13,29.11a11.85,11.85,0,0,1,0-23.7c1.11,0,3.39-.49,3.18-.62l-.11-.06a9.06,9.06,0,0,0-6.83-.55l-.07,0a12.95,12.95,0,0,0,2.27,25.66,12.72,12.72,0,0,0,8.71-3.2A11.66,11.66,0,0,1,17.13,29.11Z"/><path class="cls-9" d="M24.81,24.53a8.71,8.71,0,0,1-3.28.64,8.18,8.18,0,0,1-8.37-8,8.11,8.11,0,0,1,7.38-7.91A8.31,8.31,0,0,1,19,10.87l-.17.13a.6.6,0,0,0-.23.17s-.05,0-.06,0h0l-.25.22h0a6.25,6.25,0,0,0-1.08,1.15,7.25,7.25,0,0,0-.75,1.19,10.46,10.46,0,0,0-1.29,4.73,6.64,6.64,0,0,0,.59,2.72h0v0s0,0,0,0a5.69,5.69,0,0,0,4.86,3.31c.14,0,2.18.22,3.09-.49.41-.34.9.25,1,.38S24.78,24.51,24.81,24.53Z"/><path class="cls-5" d="M15.19,11.38a.61.61,0,0,1,0,.12,11.17,11.17,0,0,1-1.25,1.9c-.49.62-1.46.21-1.46.21a11.93,11.93,0,0,0-2-.79.58.58,0,0,1-.33-.19c-.19-.28.59-.65.59-.65S14.89,11.13,15,11,15.23,11.29,15.19,11.38Z"/><path class="cls-1" d="M13.66,4.65c-1.2,2.31-.69,3.48.12,5.4s4.2,1.7,4.2,1.7l-.34-.16c-6-.79-3.83-7-3.83-7Z"/><circle class="cls-10" cx="15.96" cy="7.4" r="0.31"/><circle class="cls-1" cx="8.33" cy="9.91" r="0.31"/><circle class="cls-1" cx="5.4" cy="18.83" r="0.31"/><circle class="cls-1" cx="6.13" cy="20.83" r="0.31"/><circle class="cls-1" cx="6.6" cy="19.86" r="0.31"/><circle class="cls-1" cx="14.37" cy="28.69" r="0.31"/><circle class="cls-1" cx="5.51" cy="17.83" r="0.31"/><circle class="cls-1" cx="6.79" cy="17.99" r="0.31"/><circle class="cls-1" cx="18.99" cy="28.69" r="0.31"/><circle class="cls-1" cx="7.23" cy="11.99" r="0.23"/><circle class="cls-1" cx="6.99" cy="12.91" r="0.23"/><circle class="cls-1" cx="7.5" cy="13.67" r="0.23"/><circle class="cls-1" cx="5.98" cy="19.52" r="0.23"/><circle class="cls-1" cx="17.1" cy="28.99" r="0.23"/><circle class="cls-1" cx="12.46" cy="27.9" r="0.23"/><circle class="cls-1" cx="10.1" cy="25.54" r="0.23"/><circle class="cls-1" cx="6.79" cy="22.67" r="0.23"/><circle class="cls-1" cx="8.27" cy="23.72" r="0.23"/><circle class="cls-1" cx="7.65" cy="22.6" r="0.23"/><circle class="cls-1" cx="13.07" cy="27.56" r="0.23"/><circle class="cls-1" cx="18.14" cy="28.74" r="0.23"/><circle class="cls-1" cx="6.25" cy="12.91" r="0.23"/><circle class="cls-1" cx="6.73" cy="12.23" r="0.23"/><circle class="cls-1" cx="5.75" cy="15.21" r="0.23"/><circle class="cls-1" cx="9.49" cy="9.88" r="0.2"/><circle class="cls-1" cx="5.98" cy="15.99" r="0.2"/><circle class="cls-1" cx="6.91" cy="16.11" r="0.2"/><circle class="cls-1" cx="10.49" cy="8.92" r="0.2"/><circle class="cls-1" cx="14.37" cy="6.54" r="0.2"/><circle class="cls-1" cx="5.4" cy="16.59" r="0.2"/><circle class="cls-1" cx="6.33" cy="13.48" r="0.2"/><circle class="cls-1" cx="6.91" cy="14.61" r="0.2"/><circle class="cls-5" cx="8.11" cy="14.92" r="0.2"/><circle class="cls-1" cx="5.91" cy="14.11" r="0.2"/><circle class="cls-1" cx="11.52" cy="8.09" r="0.12"/><circle class="cls-1" cx="6.28" cy="20.29" r="0.12"/><circle class="cls-1" cx="6.18" cy="18.29" r="0.12"/><circle class="cls-1" cx="15.46" cy="28.38" r="0.12"/><circle class="cls-1" cx="6.38" cy="16.52" r="0.12"/><circle class="cls-1" cx="5.83" cy="18.26" r="0.12"/><circle class="cls-1" cx="13.54" cy="6.86" r="0.12"/><circle class="cls-1" cx="11.73" cy="7.6" r="0.12"/><circle class="cls-1" cx="12.46" cy="6.98" r="0.12"/><circle class="cls-1" cx="16.67" cy="5.44" r="0.12"/><circle class="cls-1" cx="13.07" cy="6.18" r="0.12"/><circle class="cls-1" cx="16.27" cy="5.56" r="0.12"/><circle class="cls-1" cx="14.14" cy="6.17" r="0.12"/><circle class="cls-1" cx="13.78" cy="6.47" r="0.12"/><circle class="cls-1" cx="7.46" cy="11.59" r="0.12"/><circle class="cls-1" cx="7.96" cy="24.61" r="0.12"/><circle class="cls-1" cx="11.4" cy="27.18" r="0.12"/><circle class="cls-1" cx="21.93" cy="27.9" r="0.12"/><circle class="cls-1" cx="21.11" cy="28.38" r="0.12"/><circle class="cls-1" cx="19.8" cy="28.62" r="0.12"/><circle class="cls-1" cx="5.71" cy="16.94" r="0.12"/><circle class="cls-1" cx="15.65" cy="28.98" r="0.12"/><circle class="cls-1" cx="8.33" cy="12.27" r="0.12"/><circle class="cls-1" cx="7.67" cy="23.6" r="0.12"/><circle class="cls-1" cx="10.47" cy="26.48" r="0.12"/><circle class="cls-1" cx="10.59" cy="26.78" r="0.12"/><circle class="cls-1" cx="11.97" cy="26.26" r="0.12"/><circle class="cls-1" cx="7.15" cy="23.21" r="0.12"/><circle class="cls-1" cx="9.34" cy="25.53" r="0.12"/><circle class="cls-1" cx="6.13" cy="17.19" r="0.12"/><circle class="cls-1" cx="11.22" cy="26.9" r="0.12"/><circle class="cls-1" cx="9.9" cy="26.36" r="0.12"/><circle class="cls-1" cx="14.26" cy="27.9" r="0.12"/><circle class="cls-1" cx="15.22" cy="28.74" r="0.12"/><circle class="cls-1" cx="17.9" cy="28.98" r="0.12"/><circle class="cls-1" cx="6.79" cy="13.58" r="0.12"/><circle class="cls-1" cx="7.79" cy="13.05" r="0.12"/><circle class="cls-5" cx="8.74" cy="13.7" r="0.12"/><circle class="cls-1" cx="6.44" cy="21.51" r="0.12"/><circle class="cls-1" cx="6.5" cy="22.12" r="0.12"/><circle class="cls-1" cx="6.38" cy="18.93" r="0.12"/><circle class="cls-1" cx="6.79" cy="21.01" r="0.12"/><circle class="cls-1" cx="5.51" cy="15.92" r="0.12"/><circle class="cls-1" cx="7.76" cy="10.22" r="0.12"/><circle class="cls-1" cx="7.73" cy="10.94" r="0.12"/><circle class="cls-1" cx="8.56" cy="11.31" r="0.12"/><circle class="cls-1" cx="7.54" cy="14.66" r="0.12"/><circle class="cls-1" cx="6.01" cy="15.56" r="0.12"/><circle class="cls-1" cx="8.78" cy="11.84" r="0.12"/><circle class="cls-1" cx="9.17" cy="10.79" r="0.12"/><circle class="cls-1" cx="6.99" cy="11.36" r="0.12"/><circle class="cls-1" cx="9.11" cy="9.72" r="0.12"/><circle class="cls-1" cx="9.02" cy="24.57" r="0.12"/><circle class="cls-1" cx="13.36" cy="28.3" r="0.12"/><circle class="cls-1" cx="8.66" cy="25.41" r="0.12"/><circle class="cls-1" cx="17.07" cy="28.42" r="0.12"/><circle class="cls-1" cx="11.85" cy="27.06" r="0.12"/><circle class="cls-1" cx="20.5" cy="28.18" r="0.12"/><circle class="cls-1" cx="16.19" cy="28.38" r="0.12"/><circle class="cls-1" cx="15.11" cy="6.47" r="0.12"/><circle class="cls-1" cx="9.53" cy="8.62" r="0.12"/><circle class="cls-1" cx="17.19" cy="5.83" r="0.12"/><circle class="cls-1" cx="14.26" cy="5.83" r="0.12"/><circle class="cls-1" cx="17.43" cy="6.37" r="0.12"/><circle class="cls-1" cx="18.69" cy="5.25" r="0.12"/><circle class="cls-1" cx="16.95" cy="6.54" r="0.12"/><circle class="cls-1" cx="16.98" cy="5.68" r="0.12"/><circle class="cls-1" cx="18.13" cy="5.59" r="0.12"/><circle class="cls-1" cx="13.61" cy="6.06" r="0.12"/><circle class="cls-1" cx="14.04" cy="7.27" r="0.12"/><circle class="cls-1" cx="15.65" cy="5.71" r="0.12"/><circle class="cls-1" cx="6.64" cy="12.68" r="0.12"/><circle class="cls-1" cx="10.1" cy="7.97" r="0.2"/><circle class="cls-1" cx="8.74" cy="9.38" r="0.2"/><circle class="cls-1" cx="11.97" cy="6.66" r="0.2"/><circle class="cls-1" cx="8.83" cy="8.82" r="0.2"/><circle class="cls-1" cx="16.02" cy="5.98" r="0.2"/><circle class="cls-1" cx="17.5" cy="5.4" r="0.2"/><circle class="cls-1" cx="15.11" cy="5.63" r="0.2"/><circle class="cls-1" cx="9.73" cy="7.91" r="0.2"/><circle class="cls-1" cx="10.99" cy="7.91" r="0.31"/><circle class="cls-1" cx="9.49" cy="9.11" r="0.31"/><circle class="cls-1" cx="11.4" cy="7.06" r="0.31"/><circle class="cls-1" cx="12.46" cy="7.48" r="0.31"/><path class="cls-1" d="M14,20.36A11.07,11.07,0,0,1,15.53,23c.06.28-.54,1.1-.58,1.19s-1.84-3.11-1.71-4.07c0,0,.2-.35.31-.25A6.73,6.73,0,0,1,14,20.36Z"/><path class="cls-1" d="M15.21,11.38a.87.87,0,0,1-.05.12c-.79-.12-5,1.17-5,1.17-.19-.28.62-.69.62-.69s4.16-.85,4.31-.94C15.06,11,15.25,11.29,15.21,11.38Z"/><polyline class="cls-11" points="11.84 13.32 13.17 11.82 13.46 11.5"/><polyline class="cls-11" points="12.35 13.56 14.08 11.62 14.22 11.46"/><polyline class="cls-11" points="12.92 13.73 14.84 11.5 14.92 11.41"/><polyline class="cls-11" points="10.71 12.89 11.2 12.35 11.51 12"/><polyline class="cls-11" points="11.31 13.1 12.25 12.06 12.43 11.85"/><circle class="cls-1" cx="17.55" cy="23.72"/><path class="cls-12" d="M17.55,23.72A12.07,12.07,0,0,1,19,23.33c.81-.12.81,0,.81,0a.85.85,0,0,0,.33.39,2.47,2.47,0,0,0,.84.45,10.12,10.12,0,0,1,1.15.4l.38.33A9.44,9.44,0,0,1,17.55,23.72Z"/></svg>